<svg width="25" height="24" viewBox="0 0 25 24" fill="none" xmlns="http://www.w3.org/2000/svg">
<path fill-rule="evenodd" clip-rule="evenodd" d="M12.7998 2.25C7.41503 2.25 3.0498 6.61522 3.0498 12C3.0498 17.3848 7.41503 21.75 12.7998 21.75C18.1846 21.75 22.5498 17.3848 22.5498 12C22.5498 6.61522 18.1846 2.25 12.7998 2.25ZM13.5498 6C13.5498 5.58579 13.214 5.25 12.7998 5.25C12.3856 5.25 12.0498 5.58579 12.0498 6V12C12.0498 12.4142 12.3856 12.75 12.7998 12.75H17.2998C17.714 12.75 18.0498 12.4142 18.0498 12C18.0498 11.5858 17.714 11.25 17.2998 11.25H13.5498V6Z" fill="#999999"/>
</svg>
